<?xml version="1.0" encoding="UTF-8" standalone="no"?>
<!DOCTYPE svg PUBLIC "-//W3C//DTD SVG 1.1//EN" "http://www.w3.org/Graphics/SVG/1.1/DTD/svg11.dtd">
<!-- Created with Vectornator (http://vectornator.io/) -->
<svg height="100%" stroke-miterlimit="10" style="fill-rule:nonzero;clip-rule:evenodd;stroke-linecap:round;stroke-linejoin:round;" version="1.1" viewBox="0 0 841.995 595.35" width="100%" xml:space="preserve" xmlns="http://www.w3.org/2000/svg" xmlns:vectornator="http://vectornator.io" xmlns:xlink="http://www.w3.org/1999/xlink">
<defs/>
<g id="Layer-1" vectornator:layerName="Layer 1">
<path d="M155.773 299.626C155.605 299.962 155.196 301.002 155.27 300.634C155.509 299.435 155.819 298.24 156.277 297.107C158.677 291.179 161.26 285.326 163.835 279.472C164.955 276.927 166.197 274.438 167.362 271.914C175.991 253.218 187.44 236.851 202.633 223.039C205.317 220.598 212.772 212.684 217.245 214.473C221.565 216.201 216.255 231.056 215.229 233.62C213.553 237.811 212.905 237.703 210.695 241.682C203.812 254.07 194.807 268.1 185.181 278.601C181.504 282.612 181.014 283.305 176.568 286.481C175.771 287.05 171.433 290.868 170.889 290.053C169.534 288.019 174.067 280.733 174.965 279.723C177.881 276.442 184.975 270.062 190.036 270.906C193.003 271.4 193.101 277.46 193.334 279.792C193.669 283.137 191.099 286.461 192.19 289.732C194.242 295.888 202.099 298.497 207.58 295.366C209.618 294.201 213.17 291.413 215.045 290.007" fill="none" opacity="1" stroke="#000000" stroke-linecap="round" stroke-linejoin="miter" stroke-width="1"/>
<path d="M262.056 270.939C262.224 270.435 262.65 267.503 260.38 266.908C257.526 266.16 254.92 267.511 250.599 270.04C246.262 272.579 235.564 286.771 240.926 291.061C242.37 292.216 245.328 292.068 246.973 292.068C255.475 292.068 262.383 281.85 264.608 274.433C265.192 272.486 266.908 266.655 265.112 264.86C263.213 262.961 259.649 264.806 258.058 265.867C255.055 267.869 251.648 269.904 249.492 272.921C245.231 278.888 250.365 281.512 256.042 280.479C256.932 280.318 262.757 276.581 264.608 275.1C267.412 272.856 270.278 270.579 273.174 268.891" fill="none" opacity="1" stroke="#000000" stroke-linecap="round" stroke-linejoin="miter" stroke-width="1"/>
<path d="M307.943 270.305C308.111 269.969 308.959 266.855 309.029 266.486C309.466 264.151 310.884 260.489 308.679 261.371C303.827 263.312 296.76 269.485 293.328 273.425C291.637 275.367 285.072 287.469 289.801 289.045C293.868 290.401 298.628 285.164 300.886 282.495C308.025 274.058 314.897 263.415 320.79 254.085C323.45 249.872 325.212 246.258 327.572 241.876C328.036 241.013 330.511 236.643 329.607 236.643C327.374 236.643 321.295 244.165 320.284 245.635C315.275 252.922 311.35 260.772 310.46 269.898C309.242 282.38 322.179 289.615 325.693 284.344" fill="none" opacity="1" stroke="#000000" stroke-linecap="round" stroke-linejoin="miter" stroke-width="1"/>
<path d="M345.73 267.883C345.394 267.547 344.487 266.463 344.723 266.875C346.295 269.626 348.457 272.049 349.761 274.937C350.834 277.313 352.69 282.273 351.273 284.006C349.992 285.574 348.986 280.321 348.986 278.761C348.987 274.17 353.694 267.723 357.823 265.363C360.004 264.117 361.932 263.077 362.862 265.867" fill="none" opacity="1" stroke="#000000" stroke-linecap="round" stroke-linejoin="miter" stroke-width="1"/>
<path d="M382.008 283.503C381.841 283.838 381.225 284.761 381.505 284.51C384.957 281.421 388.877 277.008 391.71 273.341C396.039 267.735 397.46 263.516 397.124 263.348C395.16 262.366 391.57 269.418 391.078 270.402C389.548 273.462 387.393 280.243 389.566 283.503C392.389 287.737 399.335 285.244 401.659 281.991C402.577 280.706 403.458 278.897 404.178 277.456" fill="none" opacity="1" stroke="#000000" stroke-linecap="round" stroke-linejoin="miter" stroke-width="1"/>
<path d="M398.987 257.218C398.651 256.882 399.31 256.221 398.974 255.885" fill="none" opacity="1" stroke="#000000" stroke-linecap="round" stroke-linejoin="miter" stroke-width="1"/>
<path d="M487.316 266.371C487.029 263.509 479.095 262.593 476.231 264.356C471.964 266.982 468.846 271.167 466.658 275.945C465.366 278.764 465.156 284.014 467.665 286.022C475.636 292.398 487.426 277.74 490.339 271.914C491.532 269.528 493.849 265.688 491.347 263.852C488.627 261.856 480.325 262.894 477.239 265.363C472.267 269.341 479.38 271.914 482.781 271.914C486.112 271.914 492.231 269.131 494.37 267.883C497.971 265.782 501.119 263.325 504.447 260.829" fill="none" opacity="1" stroke="#000000" stroke-linecap="round" stroke-linejoin="miter" stroke-width="1"/>
<!-- <path d="M439.698 267.657C437.645 267.454 439.096 265.359 438.934 265.136C438.01 263.866 436.919 264.134 435.736 264.627C432.189 266.105 423.471 274.636 425.248 279.077C425.781 280.411 428.459 280.023 429.443 279.777C432.581 278.992 434.847 275.028 436.202 272.318C436.6 271.523 436.902 270.887 436.902 269.988C436.902 269.515 437.003 268.255 436.668 268.589C436.376 268.882 436.122 274.818 435.969 275.581C434.92 280.827 433.554 286.233 430.143 290.498C429.31 291.539 427.117 295.674 425.248 294.926C423.106 294.07 426.957 289.1 427.579 288.4C429.571 286.159 434.728 281.145 438.3 282.573C439.407 283.016 439.882 283.273 441.097 283.273" fill="none" opacity="1" stroke="#000000" stroke-linecap="round" stroke-linejoin="miter" stroke-width="1"/> -->
</g>
</svg>
