<?xml version="1.0" encoding="UTF-8" standalone="no"?>
<!DOCTYPE svg PUBLIC "-//W3C//DTD SVG 1.1//EN" "http://www.w3.org/Graphics/SVG/1.1/DTD/svg11.dtd">
<!-- Created with Vectornator (http://vectornator.io/) -->
<svg height="100%" stroke-miterlimit="10" style="fill-rule:nonzero;clip-rule:evenodd;stroke-linecap:round;stroke-linejoin:round;" version="1.1" viewBox="200 150 470.995 300.35" width="100%" xml:space="preserve" xmlns="http://www.w3.org/2000/svg" xmlns:vectornator="http://vectornator.io" xmlns:xlink="http://www.w3.org/1999/xlink">
<defs/>
<g id="Layer-1" vectornator:layerName="Layer 1">
<path d="M399.484 198.405C398.641 198.686 392.229 206.845 391.101 208.256C385.155 215.688 373.142 241.56 371.82 246.189C370.649 250.285 365.722 262.051 369.564 264.522C373.653 267.152 390.241 256.514 400.035 245.552C407.253 237.474 424.298 200.081 421.393 207.17C419.277 212.333 414.967 219.427 412.897 224.603C410.38 230.894 403.156 243.73 399.903 248.704C397.577 252.261 383.132 270.62 371.191 283.075C366.531 287.935 347.64 308.119 342.269 312.415C335.357 317.945 317.113 332.163 307.06 337.774C295.199 344.395 266.082 361.574 251.049 364.391C246.334 365.274 236.229 369.466 227.497 363.165C213.999 353.423 237.803 340.414 243.19 337.413C253.615 331.606 277.025 320.387 286.352 317.122C296.84 313.451 309.283 310.201 320.228 308.377C334.851 305.939 360.527 301.516 384.18 302.789C399.439 303.61 450.359 303.774 469.956 307.805C485.524 311.007 508.574 313.176 525.114 313.176C541.653 313.176 565.575 313.673 586.007 313.673C592.617 313.673 609.564 313.61 610.947 314.302" fill="none" opacity="1" stroke="#000000" stroke-linecap="round" stroke-linejoin="miter" stroke-width="1"/>
<path d="M399.368 299.752C401.9 298.351 404.208 296.297 406.19 294.811C413.668 289.203 432.612 269.904 436.16 267.147C442.102 262.529 451.393 255.673 456.08 259.839C461.056 264.263 454.986 272.316 449.545 280.141C444.104 287.965 435.481 296.171 427.986 302.984C421.619 308.773 412.821 314.584 405.676 319.347C401.45 322.164 388.904 332.662 387.323 331.633C385.226 330.267 392.826 325.295 396.266 322.759C401.748 318.718 429.664 307.826 433.96 311.192C436.852 313.458 436.829 317.994 429.483 330.011C423.423 339.926 393.194 367.569 365.951 383.714C351.989 391.988 311.558 410.419 284.011 411.202C276.577 411.414 246.903 408.774 282.579 385.74C294.183 378.248 370.091 350.781 453.112 323.274C483.145 313.324 529.166 290.238 567.574 270.106C605.185 250.39 645.219 221.573 645.219 221.573" fill="none" opacity="1" stroke="#000000" stroke-linecap="round" stroke-linejoin="miter" stroke-width="1"/>
<path d="M406.19 275.949C402.994 274.351 395.645 272.44 384.618 275.73C375.443 278.468 363.111 290.342 363.856 294.811C364.598 299.265 371.739 299.039 375.173 298.374C380.967 297.251 398.301 291.164 403.703 287.304C407.645 284.488 411.631 281.813 410.172 280.141C408.209 277.89 404.688 281.731 401.036 285.047C396.801 288.891 385.115 300.81 393.616 301.308C395.622 301.425 397.552 300.757 399.368 299.752" fill="none" opacity="1" stroke="#000000" stroke-linecap="round" stroke-linejoin="miter" stroke-width="1"/>
<path d="M516.009 219.992C515.729 220.132 515.222 220.719 515.17 220.411C514.886 218.706 538.158 193.657 543.427 199.331C547.875 204.12 545.283 221.722 537.231 236.452C529.439 250.707 512.064 266.793 508.836 270.314C505.812 273.613 490.026 290.615 486.877 293.763" fill="none" opacity="1" stroke="#000000" stroke-linecap="round" stroke-linejoin="miter" stroke-width="1"/>
<path d="M516.642 219.411C515.26 219.411 505.772 204.867 496.699 203.586C470.283 199.857 473.394 233.865 475.239 245.64C476.299 252.413 482.041 263.681 488.346 273.098C499.543 289.821 506.453 289.765 506.453 290.728" fill="none" opacity="1" stroke="#000000" stroke-linecap="round" stroke-linejoin="miter" stroke-width="1"/>
</g>
</svg>
